<svg xmlns="http://www.w3.org/2000/svg" xmlns:xlink="http://www.w3.org/1999/xlink" viewBox="0,0,256,256" width="48px" height="48px"><g fill-opacity="0" fill="#dddddd" stroke-miterlimit="10" font-family="none" font-weight="none" font-size="none" text-anchor="none" style="mix-blend-mode: normal"><path d="M0,256v-256h256v256z" id="bgRectangle"/></g><g fill="#ffffff" stroke-miterlimit="10" font-family="none" font-weight="none" font-size="none" text-anchor="none" style="mix-blend-mode: normal"><g transform="scale(5.33333,5.33333)"><path d="M24,4c-11.02771,0 -20,8.97229 -20,20c0,3.27532 0.86271,6.33485 2.26172,9.06445l-2.16797,7.76367c-0.50495,1.8034 1.27818,3.58449 3.08203,3.08008l7.76758,-2.16797c2.72769,1.39712 5.7836,2.25977 9.05664,2.25977c11.02771,0 20,-8.97229 20,-20c0,-11.02771 -8.97229,-20 -20,-20zM24,7c9.40629,0 17,7.59371 17,17c0,9.40629 -7.59371,17 -17,17c-3.00297,0 -5.80774,-0.78172 -8.25586,-2.14648c-0.34566,-0.19287 -0.75354,-0.24131 -1.13477,-0.13477l-7.38672,2.0625l2.0625,-7.38281c0.10655,-0.38122 0.05811,-0.7891 -0.13477,-1.13477c-1.36674,-2.4502 -2.15039,-5.25915 -2.15039,-8.26367c0,-9.40629 7.59371,-17 17,-17zM23.97656,12.97852c-0.82766,0.01293 -1.48843,0.69381 -1.47656,1.52148v12c-0.00765,0.54095 0.27656,1.04412 0.74381,1.31683c0.46725,0.27271 1.04514,0.27271 1.51238,0c0.46725,-0.27271 0.75146,-0.77588 0.74381,-1.31683v-12c0.00582,-0.40562 -0.15288,-0.7963 -0.43991,-1.08296c-0.28703,-0.28666 -0.67792,-0.44486 -1.08353,-0.43852zM24,31c-1.10457,0 -2,0.89543 -2,2c0,1.10457 0.89543,2 2,2c1.10457,0 2,-0.89543 2,-2c0,-1.10457 -0.89543,-2 -2,-2z"/></g></g></svg>