<?xml version="1.0" encoding="UTF-8" standalone="no"?>
<svg
   viewBox="0 0 1072 1024"
   role="img"
   version="1.1"
   id="svg4"
   sodipodi:docname="pawoo.svg"
   inkscape:version="1.2.2 (b0a8486541, 2022-12-01)"
   xmlns:inkscape="http://www.inkscape.org/namespaces/inkscape"
   xmlns:sodipodi="http://sodipodi.sourceforge.net/DTD/sodipodi-0.dtd"
   xmlns="http://www.w3.org/2000/svg"
   xmlns:svg="http://www.w3.org/2000/svg">
  <defs
     id="defs8" />
  <sodipodi:namedview
     id="namedview6"
     pagecolor="#ffffff"
     bordercolor="#000000"
     borderopacity="0.25"
     inkscape:showpageshadow="2"
     inkscape:pageopacity="0.0"
     inkscape:pagecheckerboard="0"
     inkscape:deskcolor="#d1d1d1"
     showgrid="false"
     inkscape:zoom="0.23046875"
     inkscape:cx="538.0339"
     inkscape:cy="512"
     inkscape:window-width="1676"
     inkscape:window-height="996"
     inkscape:window-x="0"
     inkscape:window-y="0"
     inkscape:window-maximized="1"
     inkscape:current-layer="svg4" />
  <path
     d="M558.652 601.142c0 71.962-46.057 130.285-102.853 130.285a82.797 82.797 0 01-29.8-5.553 43.423 43.423 0 009.223.982c30.298 0 54.865-31.114 54.865-69.487 0-38.373-24.567-69.488-54.865-69.488s-54.854 31.115-54.854 69.488c0 21.323 7.578 40.397 19.5 53.137-28.238-23.23-46.933-63.532-46.933-109.364 0-71.95 46.058-130.285 102.864-130.285 56.796 0 102.853 58.334 102.853 130.285zM654.66 128c-288.003 0-425.154 231.525-425.154 384v148.412c0 32.145-22.283 44.222-62.48 40.314-39.414-3.836-63.259-32.452-89.188-51.384a45.585 45.585 0 00-61.898 65.9C102.82 821.658 300.84 896 531.23 896c78.7 0 146.578-9.555 204.06-26.545a221.548 221.548 0 01-24.568-21.56c-25.728-25.941-42.138-61.579-50.13-108.926-6.642-39.226-6.31-80.108-6.038-112.964.047-6.322.106-86.572.106-86.572a13.71 13.71 0 1127.422 0s-.048 80.415-.107 86.797c-.52 64.361-1.231 152.485 48.224 202.354 9.815 9.898 22.27 24.272 33.02 31.766 24.403 13.77 56.062 21.94 97.146 21.94 13.722 0 205.717 13.71 205.717-274.293 0-27.421 27.432-479.997-411.422-479.997z"
     id="path2"
     style="fill:#ffffff" />
</svg>
